<?xml version="1.0" standalone="no"?>
<!DOCTYPE svg PUBLIC "-//W3C//DTD SVG 20010904//EN"
 "http://www.w3.org/TR/2001/REC-SVG-20010904/DTD/svg10.dtd">
<svg version="1.0" xmlns="http://www.w3.org/2000/svg"
 width="700.000000pt" height="700.000000pt" viewBox="0 0 700.000000 700.000000"
 preserveAspectRatio="xMidYMid meet">
<metadata>
Created by potrace 1.11, written by Peter Selinger 2001-2013
</metadata>
<g transform="translate(0.000000,700.000000) scale(0.100000,-0.100000)"
fill="#000000" stroke="none">
<path d="M3421 6756 c-48 -17 -108 -71 -134 -119 -22 -41 -22 -50 -25 -429
l-3 -388 -28 0 c-47 0 -251 -39 -361 -70 -267 -74 -545 -210 -761 -373 l-86
-65 -259 260 c-195 196 -271 266 -309 284 -199 95 -406 -112 -311 -311 18 -38
88 -114 284 -309 l260 -259 -65 -86 c-139 -184 -264 -424 -342 -657 -42 -128
-86 -319 -97 -426 l-7 -67 -386 -3 c-377 -3 -387 -4 -427 -25 -79 -42 -134
-129 -134 -213 0 -84 55 -171 134 -213 40 -21 50 -22 427 -25 l386 -3 7 -67
c8 -75 45 -253 75 -354 73 -250 222 -546 375 -743 l54 -70 -272 -275 c-292
-295 -296 -301 -296 -401 0 -49 29 -121 63 -158 35 -38 115 -71 172 -71 94 0
127 25 409 308 l259 261 56 -43 c316 -243 747 -421 1118 -462 l62 -6 3 -387
c3 -376 4 -387 25 -427 42 -79 129 -134 213 -134 84 0 171 55 213 134 21 40
22 51 25 427 l3 387 62 6 c371 41 802 219 1118 462 l56 43 259 -261 c282 -283
315 -308 409 -308 57 0 137 33 172 71 34 37 63 109 63 158 0 101 -4 106 -296
401 l-273 275 25 30 c236 286 442 776 480 1142 l7 62 386 3 c377 3 387 4 427
25 79 42 134 129 134 213 0 84 -55 171 -134 213 -40 21 -50 22 -427 25 l-386
3 -7 67 c-36 349 -215 790 -443 1089 l-61 80 260 259 c196 195 266 271 284
309 95 199 -112 406 -311 311 -38 -18 -114 -88 -309 -284 l-259 -260 -86 65
c-216 163 -494 299 -761 373 -110 31 -314 70 -361 70 l-28 0 -3 388 c-3 377
-4 388 -25 428 -57 107 -184 159 -292 120z m-161 -2043 l0 -638 -449 449 -449
449 41 32 c206 156 509 285 777 330 41 7 76 13 78 14 1 1 2 -286 2 -636z m735
582 c208 -56 442 -169 602 -290 l41 -32 -449 -449 -449 -449 0 636 0 636 78
-12 c43 -7 123 -25 177 -40z m-1520 -1105 l450 -450 -636 0 -636 0 9 58 c26
172 96 386 182 555 34 66 172 287 180 287 0 0 204 -202 451 -450z m2568 352
c151 -227 258 -495 295 -744 l9 -58 -636 0 -636 0 450 450 c247 248 451 450
451 450 1 0 31 -44 67 -98z m-1424 -794 c97 -46 154 -138 154 -248 0 -84 -26
-141 -89 -200 -60 -55 -105 -73 -185 -73 -109 0 -201 60 -250 161 -25 50 -30
156 -10 207 59 150 234 221 380 153z m-1143 -937 c-445 -445 -450 -449 -466
-428 -42 54 -132 200 -174 285 -82 161 -149 368 -174 535 l-9 57 636 0 636 0
-449 -449z m2867 422 c-29 -188 -94 -395 -175 -556 -45 -92 -134 -238 -178
-294 -16 -21 -21 -17 -466 428 l-449 449 636 0 636 0 -4 -27z m-2083 -947 l0
-633 -78 12 c-241 39 -486 138 -715 288 l-108 71 448 448 c246 246 449 448
450 448 2 0 3 -285 3 -634z m1357 -276 c-217 -166 -531 -302 -799 -345 l-78
-12 0 636 0 636 449 -449 c444 -444 449 -450 428 -466z"/>
</g>
</svg>
